<svg xmlns="http://www.w3.org/2000/svg" width="500" height="500" viewBox="0 0 500 500"><defs><linearGradient id="m-gold" x1="0" y1="0" x2="1" y2="1"><stop offset="0" stop-color="#fbe7a6"/><stop offset=".5" stop-color="#e2b04e"/><stop offset="1" stop-color="#9c6a1c"/></linearGradient><linearGradient id="m-rose" x1="0" y1="0" x2="1" y2="1"><stop offset="0" stop-color="#fbd9cc"/><stop offset=".5" stop-color="#dca08a"/><stop offset="1" stop-color="#9e5f4c"/></linearGradient><linearGradient id="m-silver" x1="0" y1="0" x2="1" y2="1"><stop offset="0" stop-color="#ffffff"/><stop offset=".5" stop-color="#c9ced6"/><stop offset="1" stop-color="#7d8591"/></linearGradient><radialGradient id="pearl" cx="0.35" cy="0.3" r="0.8"><stop offset="0" stop-color="#ffffff"/><stop offset="1" stop-color="#e6ddd0"/></radialGradient><radialGradient id="ruby" cx="0.35" cy="0.35" r="0.75"><stop offset="0" stop-color="#ff8aa0"/><stop offset="1" stop-color="#9b0f2a"/></radialGradient><radialGradient id="emerald" cx="0.35" cy="0.35" r="0.75"><stop offset="0" stop-color="#8ff0c8"/><stop offset="1" stop-color="#0d5a3f"/></radialGradient><radialGradient id="sapph" cx="0.35" cy="0.35" r="0.75"><stop offset="0" stop-color="#b6c8ff"/><stop offset="1" stop-color="#3a3fa0"/></radialGradient><radialGradient id="crystal" cx="0.35" cy="0.35" r="0.75"><stop offset="0" stop-color="#ffffff"/><stop offset="1" stop-color="#b9d4f0"/></radialGradient><filter id="soft" x="-20%" y="-20%" width="140%" height="140%"><feGaussianBlur stdDeviation="18"/></filter><filter id="drop" x="-20%" y="-20%" width="140%" height="160%"><feDropShadow dx="0" dy="14" stdDeviation="14" flood-color="#6b3b4a" flood-opacity=".22"/></filter><linearGradient id="bg" x1="0" y1="0" x2="0.4" y2="1"><stop offset="0" stop-color="#fdeef2"/><stop offset="1" stop-color="#efc0cf"/></linearGradient><linearGradient id="jarShade" x1="0" y1="0" x2="0" y2="1"><stop offset="0" stop-color="#ffffff00"/><stop offset="1" stop-color="#e8b9c6"/></linearGradient></defs><rect width="500" height="500" fill="url(#bg)"/><ellipse cx="79" cy="232" rx="18" ry="10" transform="rotate(9 79 232)" fill="#f7b8c8" opacity=".7"/><ellipse cx="249" cy="164" rx="29" ry="16" transform="rotate(71 249 164)" fill="#ffffff" opacity=".7"/><path transform="translate(243.9814814814815 377.4198388203018) scale(1.572679183813443)" d="M0-18C2-6 6-2 18 0C6 2 2 6 0 18C-2 6-6 2-18 0C-6-2-2-6 0-18Z" fill="#ffffff"/><ellipse cx="224" cy="126" rx="32" ry="18" transform="rotate(91 224 126)" fill="#f7b8c8" opacity=".7"/><ellipse cx="221" cy="477" rx="25" ry="14" transform="rotate(347 221 477)" fill="#ffffff" opacity=".7"/><path transform="translate(413.91460905349794 425.4393861454047) scale(0.7582604595336078)" d="M0-18C2-6 6-2 18 0C6 2 2 6 0 18C-2 6-6 2-18 0C-6-2-2-6 0-18Z" fill="#ffffff"/><g transform="translate(250 260) scale(0.6)" filter="url(#drop)"><path d="M-280-120C-240 120 240 120 280-120" fill="none" stroke="url(#m-gold)" stroke-width="54" stroke-linecap="round"/><circle cx="-260" cy="-90" r="13" fill="url(#ruby)"/><circle cx="-264.55" cy="-94.55" r="3.6400000000000006" fill="#fff" opacity=".75"/><path d="M-260 -66v26" stroke="url(#m-gold)" stroke-width="4"/><circle cx="-260" cy="-32" r="10" fill="url(#pearl)"/><circle cx="-263.5" cy="-36" r="2.5" fill="#fff" opacity=".9"/><circle cx="-216.66666666666669" cy="-48.58895278359668" r="13" fill="url(#ruby)"/><circle cx="-221.2166666666667" cy="-53.13895278359668" r="3.6400000000000006" fill="#fff" opacity=".75"/><path d="M-216.66666666666669 -24.58895278359668v33.764571353075624" stroke="url(#m-gold)" stroke-width="4"/><circle cx="-216.66666666666669" cy="17.175618569478942" r="10" fill="url(#pearl)"/><circle cx="-220.16666666666669" cy="13.175618569478942" r="2.5" fill="#fff" opacity=".9"/><circle cx="-173.33333333333334" cy="-10.000000000000014" r="13" fill="url(#emerald)"/><circle cx="-177.88333333333335" cy="-14.550000000000015" r="3.6400000000000006" fill="#fff" opacity=".75"/><path d="M-173.33333333333334 13.999999999999986v41" stroke="url(#m-gold)" stroke-width="4"/><circle cx="-173.33333333333334" cy="62.999999999999986" r="10" fill="url(#pearl)"/><circle cx="-176.83333333333334" cy="58.999999999999986" r="2.5" fill="#fff" opacity=".9"/><circle cx="-130" cy="23.137084989847594" r="13" fill="url(#ruby)"/><circle cx="-134.55" cy="18.587084989847593" r="3.6400000000000006" fill="#fff" opacity=".75"/><path d="M-130 47.137084989847594v47.21320343559643" stroke="url(#m-gold)" stroke-width="4"/><circle cx="-130" cy="102.35028842544402" r="10" fill="url(#pearl)"/><circle cx="-133.5" cy="98.35028842544402" r="2.5" fill="#fff" opacity=".9"/><circle cx="-86.66666666666669" cy="48.56406460551017" r="13" fill="url(#ruby)"/><circle cx="-91.21666666666668" cy="44.01406460551017" r="3.6400000000000006" fill="#fff" opacity=".75"/><path d="M-86.66666666666669 72.56406460551017v51.98076211353316" stroke="url(#m-gold)" stroke-width="4"/><circle cx="-86.66666666666669" cy="132.54482671904333" r="10" fill="url(#pearl)"/><circle cx="-90.16666666666669" cy="128.54482671904333" r="2.5" fill="#fff" opacity=".9"/><circle cx="-43.333333333333314" cy="64.54813220625093" r="13" fill="url(#ruby)"/><circle cx="-47.88333333333331" cy="59.99813220625093" r="3.6400000000000006" fill="#fff" opacity=".75"/><path d="M-43.333333333333314 88.54813220625093v54.97777478867205" stroke="url(#m-gold)" stroke-width="4"/><circle cx="-43.333333333333314" cy="151.525906994923" r="10" fill="url(#pearl)"/><circle cx="-46.833333333333314" cy="147.525906994923" r="2.5" fill="#fff" opacity=".9"/><circle cx="0" cy="70" r="13" fill="url(#emerald)"/><circle cx="-4.55" cy="65.45" r="3.6400000000000006" fill="#fff" opacity=".75"/><path d="M0 94v56" stroke="url(#m-gold)" stroke-width="4"/><circle cx="0" cy="158" r="10" fill="url(#pearl)"/><circle cx="-3.5" cy="154" r="2.5" fill="#fff" opacity=".9"/><circle cx="43.33333333333337" cy="64.54813220625093" r="13" fill="url(#ruby)"/><circle cx="38.783333333333374" cy="59.99813220625093" r="3.6400000000000006" fill="#fff" opacity=".75"/><path d="M43.33333333333337 88.54813220625093v54.97777478867205" stroke="url(#m-gold)" stroke-width="4"/><circle cx="43.33333333333337" cy="151.525906994923" r="10" fill="url(#pearl)"/><circle cx="39.83333333333337" cy="147.525906994923" r="2.5" fill="#fff" opacity=".9"/><circle cx="86.66666666666663" cy="48.5640646055102" r="13" fill="url(#ruby)"/><circle cx="82.11666666666663" cy="44.0140646055102" r="3.6400000000000006" fill="#fff" opacity=".75"/><path d="M86.66666666666663 72.5640646055102v51.98076211353316" stroke="url(#m-gold)" stroke-width="4"/><circle cx="86.66666666666663" cy="132.54482671904336" r="10" fill="url(#pearl)"/><circle cx="83.16666666666663" cy="128.54482671904336" r="2.5" fill="#fff" opacity=".9"/><circle cx="130" cy="23.137084989847608" r="13" fill="url(#ruby)"/><circle cx="125.45" cy="18.587084989847607" r="3.6400000000000006" fill="#fff" opacity=".75"/><path d="M130 47.13708498984761v47.21320343559643" stroke="url(#m-gold)" stroke-width="4"/><circle cx="130" cy="102.35028842544403" r="10" fill="url(#pearl)"/><circle cx="126.5" cy="98.35028842544403" r="2.5" fill="#fff" opacity=".9"/><circle cx="173.33333333333337" cy="-10.000000000000014" r="13" fill="url(#emerald)"/><circle cx="168.78333333333336" cy="-14.550000000000015" r="3.6400000000000006" fill="#fff" opacity=".75"/><path d="M173.33333333333337 13.999999999999986v41" stroke="url(#m-gold)" stroke-width="4"/><circle cx="173.33333333333337" cy="62.999999999999986" r="10" fill="url(#pearl)"/><circle cx="169.83333333333337" cy="58.999999999999986" r="2.5" fill="#fff" opacity=".9"/><circle cx="216.66666666666663" cy="-48.58895278359664" r="13" fill="url(#ruby)"/><circle cx="212.11666666666662" cy="-53.138952783596636" r="3.6400000000000006" fill="#fff" opacity=".75"/><path d="M216.66666666666663 -24.58895278359664v33.76457135307563" stroke="url(#m-gold)" stroke-width="4"/><circle cx="216.66666666666663" cy="17.175618569478992" r="10" fill="url(#pearl)"/><circle cx="213.16666666666663" cy="13.175618569478992" r="2.5" fill="#fff" opacity=".9"/><circle cx="260" cy="-89.99999999999999" r="13" fill="url(#ruby)"/><circle cx="255.45" cy="-94.54999999999998" r="3.6400000000000006" fill="#fff" opacity=".75"/><path d="M260 -65.99999999999999v26.000000000000004" stroke="url(#m-gold)" stroke-width="4"/><circle cx="260" cy="-31.999999999999982" r="10" fill="url(#pearl)"/><circle cx="256.5" cy="-35.999999999999986" r="2.5" fill="#fff" opacity=".9"/><path d="M-60 90L0 170L60 90Z" fill="url(#m-gold)"/><circle cx="0" cy="118" r="22" fill="url(#ruby)"/><circle cx="-7.699999999999999" cy="110.3" r="6.16" fill="#fff" opacity=".75"/></g></svg>
