<svg xmlns="http://www.w3.org/2000/svg" width="1200" height="900" viewBox="0 0 1200 900"><defs><linearGradient id="m-gold" x1="0" y1="0" x2="1" y2="1"><stop offset="0" stop-color="#fbe7a6"/><stop offset=".5" stop-color="#e2b04e"/><stop offset="1" stop-color="#9c6a1c"/></linearGradient><linearGradient id="m-rose" x1="0" y1="0" x2="1" y2="1"><stop offset="0" stop-color="#fbd9cc"/><stop offset=".5" stop-color="#dca08a"/><stop offset="1" stop-color="#9e5f4c"/></linearGradient><linearGradient id="m-silver" x1="0" y1="0" x2="1" y2="1"><stop offset="0" stop-color="#ffffff"/><stop offset=".5" stop-color="#c9ced6"/><stop offset="1" stop-color="#7d8591"/></linearGradient><radialGradient id="pearl" cx="0.35" cy="0.3" r="0.8"><stop offset="0" stop-color="#ffffff"/><stop offset="1" stop-color="#e6ddd0"/></radialGradient><radialGradient id="ruby" cx="0.35" cy="0.35" r="0.75"><stop offset="0" stop-color="#ff8aa0"/><stop offset="1" stop-color="#9b0f2a"/></radialGradient><radialGradient id="emerald" cx="0.35" cy="0.35" r="0.75"><stop offset="0" stop-color="#8ff0c8"/><stop offset="1" stop-color="#0d5a3f"/></radialGradient><radialGradient id="sapph" cx="0.35" cy="0.35" r="0.75"><stop offset="0" stop-color="#b6c8ff"/><stop offset="1" stop-color="#3a3fa0"/></radialGradient><radialGradient id="crystal" cx="0.35" cy="0.35" r="0.75"><stop offset="0" stop-color="#ffffff"/><stop offset="1" stop-color="#b9d4f0"/></radialGradient><filter id="soft" x="-20%" y="-20%" width="140%" height="140%"><feGaussianBlur stdDeviation="18"/></filter><filter id="drop" x="-20%" y="-20%" width="140%" height="160%"><feDropShadow dx="0" dy="14" stdDeviation="14" flood-color="#6b3b4a" flood-opacity=".22"/></filter><linearGradient id="bg" x1="0" y1="0" x2="0.4" y2="1"><stop offset="0" stop-color="#fffaf2"/><stop offset="1" stop-color="#f1e2c8"/></linearGradient><linearGradient id="jarShade" x1="0" y1="0" x2="0" y2="1"><stop offset="0" stop-color="#ffffff00"/><stop offset="1" stop-color="#e8b9c6"/></linearGradient></defs><rect width="1200" height="900" fill="url(#bg)"/><ellipse cx="190" cy="418" rx="18" ry="10" transform="rotate(9 190 418)" fill="#f7b8c8" opacity=".7"/><ellipse cx="598" cy="295" rx="29" ry="16" transform="rotate(71 598 295)" fill="#ffffff" opacity=".7"/><path transform="translate(585.5555555555555 679.3557098765432) scale(1.572679183813443)" d="M0-18C2-6 6-2 18 0C6 2 2 6 0 18C-2 6-6 2-18 0C-6-2-2-6 0-18Z" fill="#ffffff"/><ellipse cx="539" cy="227" rx="32" ry="18" transform="rotate(91 539 227)" fill="#f7b8c8" opacity=".7"/><ellipse cx="532" cy="859" rx="25" ry="14" transform="rotate(347 532 859)" fill="#ffffff" opacity=".7"/><path transform="translate(993.395061728395 765.7908950617284) scale(0.7582604595336078)" d="M0-18C2-6 6-2 18 0C6 2 2 6 0 18C-2 6-6 2-18 0C-6-2-2-6 0-18Z" fill="#ffffff"/><ellipse cx="576" cy="602" rx="27" ry="15" transform="rotate(319 576 602)" fill="#f7b8c8" opacity=".7"/><ellipse cx="821" cy="390" rx="23" ry="12" transform="rotate(251 821 390)" fill="#ffffff" opacity=".7"/><path transform="translate(823.4567901234568 618.8927469135803) scale(0.6364343278463649)" d="M0-18C2-6 6-2 18 0C6 2 2 6 0 18C-2 6-6 2-18 0C-6-2-2-6 0-18Z" fill="#ffffff"/><ellipse cx="1103" cy="344" rx="17" ry="10" transform="rotate(213 1103 344)" fill="#f7b8c8" opacity=".7"/><ellipse cx="1066" cy="388" rx="14" ry="8" transform="rotate(21 1066 388)" fill="#ffffff" opacity=".7"/><path transform="translate(875.7407407407408 838.6612654320987) scale(0.8405341220850481)" d="M0-18C2-6 6-2 18 0C6 2 2 6 0 18C-2 6-6 2-18 0C-6-2-2-6 0-18Z" fill="#ffffff"/><ellipse cx="518" cy="53" rx="21" ry="11" transform="rotate(14 518 53)" fill="#f7b8c8" opacity=".7"/><ellipse cx="866" cy="552" rx="15" ry="8" transform="rotate(258 866 552)" fill="#ffffff" opacity=".7"/>
   <g transform="translate(420 330) scale(.7) rotate(-10)" filter="url(#drop)"><path d="M-280-120C-240 120 240 120 280-120" fill="none" stroke="url(#m-gold)" stroke-width="54" stroke-linecap="round"/><circle cx="-260" cy="-90" r="13" fill="url(#ruby)"/><circle cx="-264.55" cy="-94.55" r="3.6400000000000006" fill="#fff" opacity=".75"/><path d="M-260 -66v26" stroke="url(#m-gold)" stroke-width="4"/><circle cx="-260" cy="-32" r="10" fill="url(#pearl)"/><circle cx="-263.5" cy="-36" r="2.5" fill="#fff" opacity=".9"/><circle cx="-216.66666666666669" cy="-48.58895278359668" r="13" fill="url(#ruby)"/><circle cx="-221.2166666666667" cy="-53.13895278359668" r="3.6400000000000006" fill="#fff" opacity=".75"/><path d="M-216.66666666666669 -24.58895278359668v33.764571353075624" stroke="url(#m-gold)" stroke-width="4"/><circle cx="-216.66666666666669" cy="17.175618569478942" r="10" fill="url(#pearl)"/><circle cx="-220.16666666666669" cy="13.175618569478942" r="2.5" fill="#fff" opacity=".9"/><circle cx="-173.33333333333334" cy="-10.000000000000014" r="13" fill="url(#emerald)"/><circle cx="-177.88333333333335" cy="-14.550000000000015" r="3.6400000000000006" fill="#fff" opacity=".75"/><path d="M-173.33333333333334 13.999999999999986v41" stroke="url(#m-gold)" stroke-width="4"/><circle cx="-173.33333333333334" cy="62.999999999999986" r="10" fill="url(#pearl)"/><circle cx="-176.83333333333334" cy="58.999999999999986" r="2.5" fill="#fff" opacity=".9"/><circle cx="-130" cy="23.137084989847594" r="13" fill="url(#ruby)"/><circle cx="-134.55" cy="18.587084989847593" r="3.6400000000000006" fill="#fff" opacity=".75"/><path d="M-130 47.137084989847594v47.21320343559643" stroke="url(#m-gold)" stroke-width="4"/><circle cx="-130" cy="102.35028842544402" r="10" fill="url(#pearl)"/><circle cx="-133.5" cy="98.35028842544402" r="2.5" fill="#fff" opacity=".9"/><circle cx="-86.66666666666669" cy="48.56406460551017" r="13" fill="url(#ruby)"/><circle cx="-91.21666666666668" cy="44.01406460551017" r="3.6400000000000006" fill="#fff" opacity=".75"/><path d="M-86.66666666666669 72.56406460551017v51.98076211353316" stroke="url(#m-gold)" stroke-width="4"/><circle cx="-86.66666666666669" cy="132.54482671904333" r="10" fill="url(#pearl)"/><circle cx="-90.16666666666669" cy="128.54482671904333" r="2.5" fill="#fff" opacity=".9"/><circle cx="-43.333333333333314" cy="64.54813220625093" r="13" fill="url(#ruby)"/><circle cx="-47.88333333333331" cy="59.99813220625093" r="3.6400000000000006" fill="#fff" opacity=".75"/><path d="M-43.333333333333314 88.54813220625093v54.97777478867205" stroke="url(#m-gold)" stroke-width="4"/><circle cx="-43.333333333333314" cy="151.525906994923" r="10" fill="url(#pearl)"/><circle cx="-46.833333333333314" cy="147.525906994923" r="2.5" fill="#fff" opacity=".9"/><circle cx="0" cy="70" r="13" fill="url(#emerald)"/><circle cx="-4.55" cy="65.45" r="3.6400000000000006" fill="#fff" opacity=".75"/><path d="M0 94v56" stroke="url(#m-gold)" stroke-width="4"/><circle cx="0" cy="158" r="10" fill="url(#pearl)"/><circle cx="-3.5" cy="154" r="2.5" fill="#fff" opacity=".9"/><circle cx="43.33333333333337" cy="64.54813220625093" r="13" fill="url(#ruby)"/><circle cx="38.783333333333374" cy="59.99813220625093" r="3.6400000000000006" fill="#fff" opacity=".75"/><path d="M43.33333333333337 88.54813220625093v54.97777478867205" stroke="url(#m-gold)" stroke-width="4"/><circle cx="43.33333333333337" cy="151.525906994923" r="10" fill="url(#pearl)"/><circle cx="39.83333333333337" cy="147.525906994923" r="2.5" fill="#fff" opacity=".9"/><circle cx="86.66666666666663" cy="48.5640646055102" r="13" fill="url(#ruby)"/><circle cx="82.11666666666663" cy="44.0140646055102" r="3.6400000000000006" fill="#fff" opacity=".75"/><path d="M86.66666666666663 72.5640646055102v51.98076211353316" stroke="url(#m-gold)" stroke-width="4"/><circle cx="86.66666666666663" cy="132.54482671904336" r="10" fill="url(#pearl)"/><circle cx="83.16666666666663" cy="128.54482671904336" r="2.5" fill="#fff" opacity=".9"/><circle cx="130" cy="23.137084989847608" r="13" fill="url(#ruby)"/><circle cx="125.45" cy="18.587084989847607" r="3.6400000000000006" fill="#fff" opacity=".75"/><path d="M130 47.13708498984761v47.21320343559643" stroke="url(#m-gold)" stroke-width="4"/><circle cx="130" cy="102.35028842544403" r="10" fill="url(#pearl)"/><circle cx="126.5" cy="98.35028842544403" r="2.5" fill="#fff" opacity=".9"/><circle cx="173.33333333333337" cy="-10.000000000000014" r="13" fill="url(#emerald)"/><circle cx="168.78333333333336" cy="-14.550000000000015" r="3.6400000000000006" fill="#fff" opacity=".75"/><path d="M173.33333333333337 13.999999999999986v41" stroke="url(#m-gold)" stroke-width="4"/><circle cx="173.33333333333337" cy="62.999999999999986" r="10" fill="url(#pearl)"/><circle cx="169.83333333333337" cy="58.999999999999986" r="2.5" fill="#fff" opacity=".9"/><circle cx="216.66666666666663" cy="-48.58895278359664" r="13" fill="url(#ruby)"/><circle cx="212.11666666666662" cy="-53.138952783596636" r="3.6400000000000006" fill="#fff" opacity=".75"/><path d="M216.66666666666663 -24.58895278359664v33.76457135307563" stroke="url(#m-gold)" stroke-width="4"/><circle cx="216.66666666666663" cy="17.175618569478992" r="10" fill="url(#pearl)"/><circle cx="213.16666666666663" cy="13.175618569478992" r="2.5" fill="#fff" opacity=".9"/><circle cx="260" cy="-89.99999999999999" r="13" fill="url(#ruby)"/><circle cx="255.45" cy="-94.54999999999998" r="3.6400000000000006" fill="#fff" opacity=".75"/><path d="M260 -65.99999999999999v26.000000000000004" stroke="url(#m-gold)" stroke-width="4"/><circle cx="260" cy="-31.999999999999982" r="10" fill="url(#pearl)"/><circle cx="256.5" cy="-35.999999999999986" r="2.5" fill="#fff" opacity=".9"/><path d="M-60 90L0 170L60 90Z" fill="url(#m-gold)"/><circle cx="0" cy="118" r="22" fill="url(#ruby)"/><circle cx="-7.699999999999999" cy="110.3" r="6.16" fill="#fff" opacity=".75"/></g>
   <g transform="translate(860 300) scale(.55) rotate(8)" filter="url(#drop)"><g transform="translate(-150 -30)">
      <path d="M0-180C-26-180-26-146 0-146" fill="none" stroke="url(#m-gold)" stroke-width="7"/>
      <path d="M-120-60C-120 70 120 70 120-60C80 10-80 10-120-60Z" fill="url(#m-gold)"/>
      <circle cx="-72" cy="-4" r="11" fill="url(#emerald)"/><circle cx="-75.85" cy="-7.85" r="3.08" fill="#fff" opacity=".75"/><circle cx="-36" cy="2" r="11" fill="url(#ruby)"/><circle cx="-39.85" cy="-1.8499999999999996" r="3.08" fill="#fff" opacity=".75"/><circle cx="0" cy="8" r="11" fill="url(#emerald)"/><circle cx="-3.8499999999999996" cy="4.15" r="3.08" fill="#fff" opacity=".75"/><circle cx="36" cy="2" r="11" fill="url(#ruby)"/><circle cx="32.15" cy="-1.8499999999999996" r="3.08" fill="#fff" opacity=".75"/><circle cx="72" cy="-4" r="11" fill="url(#emerald)"/><circle cx="68.15" cy="-7.85" r="3.08" fill="#fff" opacity=".75"/>
      <circle cx="0" cy="-110" r="30" fill="url(#m-gold)"/><circle cx="0" cy="-110" r="13" fill="url(#emerald)"/><circle cx="-4.55" cy="-114.55" r="3.6400000000000006" fill="#fff" opacity=".75"/>
      <circle cx="-100" cy="58" r="9" fill="url(#pearl)"/><circle cx="-103.15" cy="54.4" r="2.25" fill="#fff" opacity=".9"/><circle cx="-75" cy="67.94976924149233" r="9" fill="url(#pearl)"/><circle cx="-78.15" cy="64.34976924149234" r="2.25" fill="#fff" opacity=".9"/><circle cx="-50" cy="76.38477631085024" r="9" fill="url(#pearl)"/><circle cx="-53.15" cy="72.78477631085025" r="2.25" fill="#fff" opacity=".9"/><circle cx="-25" cy="82.02086784529345" r="9" fill="url(#pearl)"/><circle cx="-28.15" cy="78.42086784529346" r="2.25" fill="#fff" opacity=".9"/><circle cx="0" cy="84" r="9" fill="url(#pearl)"/><circle cx="-3.15" cy="80.4" r="2.25" fill="#fff" opacity=".9"/><circle cx="25" cy="82.02086784529345" r="9" fill="url(#pearl)"/><circle cx="21.85" cy="78.42086784529346" r="2.25" fill="#fff" opacity=".9"/><circle cx="50" cy="76.38477631085024" r="9" fill="url(#pearl)"/><circle cx="46.85" cy="72.78477631085025" r="2.25" fill="#fff" opacity=".9"/><circle cx="75" cy="67.94976924149233" r="9" fill="url(#pearl)"/><circle cx="71.85" cy="64.34976924149234" r="2.25" fill="#fff" opacity=".9"/><circle cx="100" cy="58" r="9" fill="url(#pearl)"/><circle cx="96.85" cy="54.4" r="2.25" fill="#fff" opacity=".9"/></g><g transform="translate(150 -30)">
      <path d="M0-180C-26-180-26-146 0-146" fill="none" stroke="url(#m-gold)" stroke-width="7"/>
      <path d="M-120-60C-120 70 120 70 120-60C80 10-80 10-120-60Z" fill="url(#m-gold)"/>
      <circle cx="-72" cy="-4" r="11" fill="url(#emerald)"/><circle cx="-75.85" cy="-7.85" r="3.08" fill="#fff" opacity=".75"/><circle cx="-36" cy="2" r="11" fill="url(#ruby)"/><circle cx="-39.85" cy="-1.8499999999999996" r="3.08" fill="#fff" opacity=".75"/><circle cx="0" cy="8" r="11" fill="url(#emerald)"/><circle cx="-3.8499999999999996" cy="4.15" r="3.08" fill="#fff" opacity=".75"/><circle cx="36" cy="2" r="11" fill="url(#ruby)"/><circle cx="32.15" cy="-1.8499999999999996" r="3.08" fill="#fff" opacity=".75"/><circle cx="72" cy="-4" r="11" fill="url(#emerald)"/><circle cx="68.15" cy="-7.85" r="3.08" fill="#fff" opacity=".75"/>
      <circle cx="0" cy="-110" r="30" fill="url(#m-gold)"/><circle cx="0" cy="-110" r="13" fill="url(#emerald)"/><circle cx="-4.55" cy="-114.55" r="3.6400000000000006" fill="#fff" opacity=".75"/>
      <circle cx="-100" cy="58" r="9" fill="url(#pearl)"/><circle cx="-103.15" cy="54.4" r="2.25" fill="#fff" opacity=".9"/><circle cx="-75" cy="67.94976924149233" r="9" fill="url(#pearl)"/><circle cx="-78.15" cy="64.34976924149234" r="2.25" fill="#fff" opacity=".9"/><circle cx="-50" cy="76.38477631085024" r="9" fill="url(#pearl)"/><circle cx="-53.15" cy="72.78477631085025" r="2.25" fill="#fff" opacity=".9"/><circle cx="-25" cy="82.02086784529345" r="9" fill="url(#pearl)"/><circle cx="-28.15" cy="78.42086784529346" r="2.25" fill="#fff" opacity=".9"/><circle cx="0" cy="84" r="9" fill="url(#pearl)"/><circle cx="-3.15" cy="80.4" r="2.25" fill="#fff" opacity=".9"/><circle cx="25" cy="82.02086784529345" r="9" fill="url(#pearl)"/><circle cx="21.85" cy="78.42086784529346" r="2.25" fill="#fff" opacity=".9"/><circle cx="50" cy="76.38477631085024" r="9" fill="url(#pearl)"/><circle cx="46.85" cy="72.78477631085025" r="2.25" fill="#fff" opacity=".9"/><circle cx="75" cy="67.94976924149233" r="9" fill="url(#pearl)"/><circle cx="71.85" cy="64.34976924149234" r="2.25" fill="#fff" opacity=".9"/><circle cx="100" cy="58" r="9" fill="url(#pearl)"/><circle cx="96.85" cy="54.4" r="2.25" fill="#fff" opacity=".9"/></g></g>
   <g transform="translate(600 680) scale(.55)" filter="url(#drop)"><ellipse cx="0" cy="-120" rx="230" ry="78" fill="none" stroke="url(#m-gold)" stroke-width="30"/><circle cx="222.77412705958514" cy="-100.60218880114132" r="9" fill="url(#ruby)"/><circle cx="219.62412705958513" cy="-103.75218880114133" r="2.5200000000000005" fill="#fff" opacity=".75"/><circle cx="192.23569311470217" cy="-77.17622019614572" r="9" fill="url(#emerald)"/><circle cx="189.08569311470217" cy="-80.32622019614573" r="2.5200000000000005" fill="#fff" opacity=".75"/><circle cx="140.96862234018462" cy="-58.367909034696154" r="9" fill="url(#ruby)"/><circle cx="137.81862234018462" cy="-61.51790903469615" r="2.5200000000000005" fill="#fff" opacity=".75"/><circle cx="74.50100618557437" cy="-46.205342011451464" r="9" fill="url(#ruby)"/><circle cx="71.35100618557436" cy="-49.35534201145146" r="2.5200000000000005" fill="#fff" opacity=".75"/><circle cx="1.4083438190194563e-14" cy="-42" r="9" fill="url(#emerald)"/><circle cx="-3.1499999999999857" cy="-45.15" r="2.5200000000000005" fill="#fff" opacity=".75"/><circle cx="-74.50100618557433" cy="-46.205342011451464" r="9" fill="url(#ruby)"/><circle cx="-77.65100618557433" cy="-49.35534201145146" r="2.5200000000000005" fill="#fff" opacity=".75"/><circle cx="-140.96862234018454" cy="-58.36790903469614" r="9" fill="url(#ruby)"/><circle cx="-144.11862234018454" cy="-61.51790903469614" r="2.5200000000000005" fill="#fff" opacity=".75"/><circle cx="-192.23569311470212" cy="-77.17622019614569" r="9" fill="url(#emerald)"/><circle cx="-195.38569311470212" cy="-80.3262201961457" r="2.5200000000000005" fill="#fff" opacity=".75"/><circle cx="-222.7741270595851" cy="-100.6021888011413" r="9" fill="url(#ruby)"/><circle cx="-225.92412705958512" cy="-103.7521888011413" r="2.5200000000000005" fill="#fff" opacity=".75"/><ellipse cx="0" cy="-50" rx="230" ry="78" fill="none" stroke="url(#m-gold)" stroke-width="22"/><ellipse cx="0" cy="20" rx="230" ry="78" fill="none" stroke="url(#m-gold)" stroke-width="30"/><circle cx="222.77412705958514" cy="39.397811198858676" r="9" fill="url(#ruby)"/><circle cx="219.62412705958513" cy="36.24781119885868" r="2.5200000000000005" fill="#fff" opacity=".75"/><circle cx="192.23569311470217" cy="62.82377980385428" r="9" fill="url(#emerald)"/><circle cx="189.08569311470217" cy="59.67377980385428" r="2.5200000000000005" fill="#fff" opacity=".75"/><circle cx="140.96862234018462" cy="81.63209096530385" r="9" fill="url(#ruby)"/><circle cx="137.81862234018462" cy="78.48209096530384" r="2.5200000000000005" fill="#fff" opacity=".75"/><circle cx="74.50100618557437" cy="93.79465798854854" r="9" fill="url(#ruby)"/><circle cx="71.35100618557436" cy="90.64465798854853" r="2.5200000000000005" fill="#fff" opacity=".75"/><circle cx="1.4083438190194563e-14" cy="98" r="9" fill="url(#emerald)"/><circle cx="-3.1499999999999857" cy="94.85" r="2.5200000000000005" fill="#fff" opacity=".75"/><circle cx="-74.50100618557433" cy="93.79465798854854" r="9" fill="url(#ruby)"/><circle cx="-77.65100618557433" cy="90.64465798854853" r="2.5200000000000005" fill="#fff" opacity=".75"/><circle cx="-140.96862234018454" cy="81.63209096530386" r="9" fill="url(#ruby)"/><circle cx="-144.11862234018454" cy="78.48209096530385" r="2.5200000000000005" fill="#fff" opacity=".75"/><circle cx="-192.23569311470212" cy="62.8237798038543" r="9" fill="url(#emerald)"/><circle cx="-195.38569311470212" cy="59.6737798038543" r="2.5200000000000005" fill="#fff" opacity=".75"/><circle cx="-222.7741270595851" cy="39.397811198858705" r="9" fill="url(#ruby)"/><circle cx="-225.92412705958512" cy="36.247811198858706" r="2.5200000000000005" fill="#fff" opacity=".75"/><ellipse cx="0" cy="90" rx="230" ry="78" fill="none" stroke="url(#m-gold)" stroke-width="22"/></g></svg>
