<svg xmlns="http://www.w3.org/2000/svg" width="1000" height="1000" viewBox="0 0 1000 1000"><defs><linearGradient id="m-gold" x1="0" y1="0" x2="1" y2="1"><stop offset="0" stop-color="#fbe7a6"/><stop offset=".5" stop-color="#e2b04e"/><stop offset="1" stop-color="#9c6a1c"/></linearGradient><linearGradient id="m-rose" x1="0" y1="0" x2="1" y2="1"><stop offset="0" stop-color="#fbd9cc"/><stop offset=".5" stop-color="#dca08a"/><stop offset="1" stop-color="#9e5f4c"/></linearGradient><linearGradient id="m-silver" x1="0" y1="0" x2="1" y2="1"><stop offset="0" stop-color="#ffffff"/><stop offset=".5" stop-color="#c9ced6"/><stop offset="1" stop-color="#7d8591"/></linearGradient><radialGradient id="pearl" cx="0.35" cy="0.3" r="0.8"><stop offset="0" stop-color="#ffffff"/><stop offset="1" stop-color="#e6ddd0"/></radialGradient><radialGradient id="ruby" cx="0.35" cy="0.35" r="0.75"><stop offset="0" stop-color="#ff8aa0"/><stop offset="1" stop-color="#9b0f2a"/></radialGradient><radialGradient id="emerald" cx="0.35" cy="0.35" r="0.75"><stop offset="0" stop-color="#8ff0c8"/><stop offset="1" stop-color="#0d5a3f"/></radialGradient><radialGradient id="sapph" cx="0.35" cy="0.35" r="0.75"><stop offset="0" stop-color="#b6c8ff"/><stop offset="1" stop-color="#3a3fa0"/></radialGradient><radialGradient id="crystal" cx="0.35" cy="0.35" r="0.75"><stop offset="0" stop-color="#ffffff"/><stop offset="1" stop-color="#b9d4f0"/></radialGradient><filter id="soft" x="-20%" y="-20%" width="140%" height="140%"><feGaussianBlur stdDeviation="18"/></filter><filter id="drop" x="-20%" y="-20%" width="140%" height="160%"><feDropShadow dx="0" dy="14" stdDeviation="14" flood-color="#6b3b4a" flood-opacity=".22"/></filter><linearGradient id="bg" x1="0" y1="0" x2="0.4" y2="1"><stop offset="0" stop-color="#effaf5"/><stop offset="1" stop-color="#cdeee0"/></linearGradient><linearGradient id="jarShade" x1="0" y1="0" x2="0" y2="1"><stop offset="0" stop-color="#ffffff00"/><stop offset="1" stop-color="#e8b9c6"/></linearGradient></defs><rect width="1000" height="1000" fill="url(#bg)"/><circle cx="500" cy="470" r="340" fill="#ffffff" opacity=".55"/>
         <ellipse cx="500" cy="820" rx="300" ry="36" fill="#6b3b4a" opacity=".08" filter="url(#soft)"/>
         <ellipse cx="235" cy="34" rx="30" ry="16" transform="rotate(299 235 34)" fill="#f7b8c8" opacity=".7"/><ellipse cx="47" cy="36" rx="12" ry="6" transform="rotate(171 47 36)" fill="#ffffff" opacity=".7"/><path transform="translate(175.5787037037037 268.8443072702332) scale(1.3054453875171468)" d="M0-18C2-6 6-2 18 0C6 2 2 6 0 18C-2 6-6 2-18 0C-6-2-2-6 0-18Z" fill="#ffffff"/><ellipse cx="942" cy="238" rx="30" ry="16" transform="rotate(171 942 238)" fill="#f7b8c8" opacity=".7"/><ellipse cx="408" cy="80" rx="18" ry="10" transform="rotate(237 408 80)" fill="#ffffff" opacity=".7"/><path transform="translate(932.1116255144033 781.5500685871057) scale(0.9493599965706447)" d="M0-18C2-6 6-2 18 0C6 2 2 6 0 18C-2 6-6 2-18 0C-6-2-2-6 0-18Z" fill="#ffffff"/><ellipse cx="390" cy="72" rx="34" ry="19" transform="rotate(189 390 72)" fill="#f7b8c8" opacity=".7"/><ellipse cx="66" cy="975" rx="26" ry="14" transform="rotate(291 66 975)" fill="#ffffff" opacity=".7"/>
         <g transform="translate(500 480) scale(1.18)" filter="url(#drop)"><g transform="translate(-150 -30)">
      <path d="M0-180C-26-180-26-146 0-146" fill="none" stroke="url(#m-gold)" stroke-width="7"/>
      <path d="M-120-60C-120 70 120 70 120-60C80 10-80 10-120-60Z" fill="url(#m-gold)"/>
      <circle cx="-72" cy="-4" r="11" fill="url(#emerald)"/><circle cx="-75.85" cy="-7.85" r="3.08" fill="#fff" opacity=".75"/><circle cx="-36" cy="2" r="11" fill="url(#ruby)"/><circle cx="-39.85" cy="-1.8499999999999996" r="3.08" fill="#fff" opacity=".75"/><circle cx="0" cy="8" r="11" fill="url(#emerald)"/><circle cx="-3.8499999999999996" cy="4.15" r="3.08" fill="#fff" opacity=".75"/><circle cx="36" cy="2" r="11" fill="url(#ruby)"/><circle cx="32.15" cy="-1.8499999999999996" r="3.08" fill="#fff" opacity=".75"/><circle cx="72" cy="-4" r="11" fill="url(#emerald)"/><circle cx="68.15" cy="-7.85" r="3.08" fill="#fff" opacity=".75"/>
      <circle cx="0" cy="-110" r="30" fill="url(#m-gold)"/><circle cx="0" cy="-110" r="13" fill="url(#emerald)"/><circle cx="-4.55" cy="-114.55" r="3.6400000000000006" fill="#fff" opacity=".75"/>
      <circle cx="-100" cy="58" r="9" fill="url(#pearl)"/><circle cx="-103.15" cy="54.4" r="2.25" fill="#fff" opacity=".9"/><circle cx="-75" cy="67.94976924149233" r="9" fill="url(#pearl)"/><circle cx="-78.15" cy="64.34976924149234" r="2.25" fill="#fff" opacity=".9"/><circle cx="-50" cy="76.38477631085024" r="9" fill="url(#pearl)"/><circle cx="-53.15" cy="72.78477631085025" r="2.25" fill="#fff" opacity=".9"/><circle cx="-25" cy="82.02086784529345" r="9" fill="url(#pearl)"/><circle cx="-28.15" cy="78.42086784529346" r="2.25" fill="#fff" opacity=".9"/><circle cx="0" cy="84" r="9" fill="url(#pearl)"/><circle cx="-3.15" cy="80.4" r="2.25" fill="#fff" opacity=".9"/><circle cx="25" cy="82.02086784529345" r="9" fill="url(#pearl)"/><circle cx="21.85" cy="78.42086784529346" r="2.25" fill="#fff" opacity=".9"/><circle cx="50" cy="76.38477631085024" r="9" fill="url(#pearl)"/><circle cx="46.85" cy="72.78477631085025" r="2.25" fill="#fff" opacity=".9"/><circle cx="75" cy="67.94976924149233" r="9" fill="url(#pearl)"/><circle cx="71.85" cy="64.34976924149234" r="2.25" fill="#fff" opacity=".9"/><circle cx="100" cy="58" r="9" fill="url(#pearl)"/><circle cx="96.85" cy="54.4" r="2.25" fill="#fff" opacity=".9"/></g><g transform="translate(150 -30)">
      <path d="M0-180C-26-180-26-146 0-146" fill="none" stroke="url(#m-gold)" stroke-width="7"/>
      <path d="M-120-60C-120 70 120 70 120-60C80 10-80 10-120-60Z" fill="url(#m-gold)"/>
      <circle cx="-72" cy="-4" r="11" fill="url(#emerald)"/><circle cx="-75.85" cy="-7.85" r="3.08" fill="#fff" opacity=".75"/><circle cx="-36" cy="2" r="11" fill="url(#ruby)"/><circle cx="-39.85" cy="-1.8499999999999996" r="3.08" fill="#fff" opacity=".75"/><circle cx="0" cy="8" r="11" fill="url(#emerald)"/><circle cx="-3.8499999999999996" cy="4.15" r="3.08" fill="#fff" opacity=".75"/><circle cx="36" cy="2" r="11" fill="url(#ruby)"/><circle cx="32.15" cy="-1.8499999999999996" r="3.08" fill="#fff" opacity=".75"/><circle cx="72" cy="-4" r="11" fill="url(#emerald)"/><circle cx="68.15" cy="-7.85" r="3.08" fill="#fff" opacity=".75"/>
      <circle cx="0" cy="-110" r="30" fill="url(#m-gold)"/><circle cx="0" cy="-110" r="13" fill="url(#emerald)"/><circle cx="-4.55" cy="-114.55" r="3.6400000000000006" fill="#fff" opacity=".75"/>
      <circle cx="-100" cy="58" r="9" fill="url(#pearl)"/><circle cx="-103.15" cy="54.4" r="2.25" fill="#fff" opacity=".9"/><circle cx="-75" cy="67.94976924149233" r="9" fill="url(#pearl)"/><circle cx="-78.15" cy="64.34976924149234" r="2.25" fill="#fff" opacity=".9"/><circle cx="-50" cy="76.38477631085024" r="9" fill="url(#pearl)"/><circle cx="-53.15" cy="72.78477631085025" r="2.25" fill="#fff" opacity=".9"/><circle cx="-25" cy="82.02086784529345" r="9" fill="url(#pearl)"/><circle cx="-28.15" cy="78.42086784529346" r="2.25" fill="#fff" opacity=".9"/><circle cx="0" cy="84" r="9" fill="url(#pearl)"/><circle cx="-3.15" cy="80.4" r="2.25" fill="#fff" opacity=".9"/><circle cx="25" cy="82.02086784529345" r="9" fill="url(#pearl)"/><circle cx="21.85" cy="78.42086784529346" r="2.25" fill="#fff" opacity=".9"/><circle cx="50" cy="76.38477631085024" r="9" fill="url(#pearl)"/><circle cx="46.85" cy="72.78477631085025" r="2.25" fill="#fff" opacity=".9"/><circle cx="75" cy="67.94976924149233" r="9" fill="url(#pearl)"/><circle cx="71.85" cy="64.34976924149234" r="2.25" fill="#fff" opacity=".9"/><circle cx="100" cy="58" r="9" fill="url(#pearl)"/><circle cx="96.85" cy="54.4" r="2.25" fill="#fff" opacity=".9"/></g></g></svg>
