<svg xmlns="http://www.w3.org/2000/svg" width="1000" height="1000" viewBox="0 0 1000 1000"><defs><linearGradient id="m-gold" x1="0" y1="0" x2="1" y2="1"><stop offset="0" stop-color="#fbe7a6"/><stop offset=".5" stop-color="#e2b04e"/><stop offset="1" stop-color="#9c6a1c"/></linearGradient><linearGradient id="m-rose" x1="0" y1="0" x2="1" y2="1"><stop offset="0" stop-color="#fbd9cc"/><stop offset=".5" stop-color="#dca08a"/><stop offset="1" stop-color="#9e5f4c"/></linearGradient><linearGradient id="m-silver" x1="0" y1="0" x2="1" y2="1"><stop offset="0" stop-color="#ffffff"/><stop offset=".5" stop-color="#c9ced6"/><stop offset="1" stop-color="#7d8591"/></linearGradient><radialGradient id="pearl" cx="0.35" cy="0.3" r="0.8"><stop offset="0" stop-color="#ffffff"/><stop offset="1" stop-color="#e6ddd0"/></radialGradient><radialGradient id="ruby" cx="0.35" cy="0.35" r="0.75"><stop offset="0" stop-color="#ff8aa0"/><stop offset="1" stop-color="#9b0f2a"/></radialGradient><radialGradient id="emerald" cx="0.35" cy="0.35" r="0.75"><stop offset="0" stop-color="#8ff0c8"/><stop offset="1" stop-color="#0d5a3f"/></radialGradient><radialGradient id="sapph" cx="0.35" cy="0.35" r="0.75"><stop offset="0" stop-color="#b6c8ff"/><stop offset="1" stop-color="#3a3fa0"/></radialGradient><radialGradient id="crystal" cx="0.35" cy="0.35" r="0.75"><stop offset="0" stop-color="#ffffff"/><stop offset="1" stop-color="#b9d4f0"/></radialGradient><filter id="soft" x="-20%" y="-20%" width="140%" height="140%"><feGaussianBlur stdDeviation="18"/></filter><filter id="drop" x="-20%" y="-20%" width="140%" height="160%"><feDropShadow dx="0" dy="14" stdDeviation="14" flood-color="#6b3b4a" flood-opacity=".22"/></filter><linearGradient id="bg" x1="0" y1="0" x2="0.4" y2="1"><stop offset="0" stop-color="#f1f6ff"/><stop offset="1" stop-color="#d3e2f7"/></linearGradient><linearGradient id="jarShade" x1="0" y1="0" x2="0" y2="1"><stop offset="0" stop-color="#ffffff00"/><stop offset="1" stop-color="#e8b9c6"/></linearGradient></defs><rect width="1000" height="1000" fill="url(#bg)"/>
         <path d="M180 1000V430C180 250 330 130 500 130C670 130 820 250 820 430V1000Z" fill="#ffffff" opacity=".6"/>
         <rect x="0" y="780" width="1000" height="220" fill="#d3e2f7" opacity=".7"/>
         <ellipse cx="500" cy="800" rx="330" ry="40" fill="#ffffff" opacity=".9"/>
         <ellipse cx="133" cy="452" rx="21" ry="11" transform="rotate(11 133 452)" fill="#f7b8c8" opacity=".7"/><ellipse cx="748" cy="688" rx="25" ry="13" transform="rotate(225 748 688)" fill="#ffffff" opacity=".7"/><path transform="translate(136.9684499314129 108.41177983539094) scale(1.263539951989026)" d="M0-18C2-6 6-2 18 0C6 2 2 6 0 18C-2 6-6 2-18 0C-6-2-2-6 0-18Z" fill="#ffffff"/><ellipse cx="213" cy="260" rx="32" ry="17" transform="rotate(57 213 260)" fill="#f7b8c8" opacity=".7"/><ellipse cx="75" cy="176" rx="21" ry="11" transform="rotate(80 75 176)" fill="#ffffff" opacity=".7"/><path transform="translate(896.5877914951989 262.0588991769547) scale(0.7478866598079561)" d="M0-18C2-6 6-2 18 0C6 2 2 6 0 18C-2 6-6 2-18 0C-6-2-2-6 0-18Z" fill="#ffffff"/><ellipse cx="479" cy="354" rx="25" ry="14" transform="rotate(49 479 354)" fill="#f7b8c8" opacity=".7"/><ellipse cx="477" cy="339" rx="30" ry="16" transform="rotate(201 477 339)" fill="#ffffff" opacity=".7"/><path transform="translate(285.8367626886145 545.3356481481482) scale(0.6803815157750344)" d="M0-18C2-6 6-2 18 0C6 2 2 6 0 18C-2 6-6 2-18 0C-6-2-2-6 0-18Z" fill="#ffffff"/><ellipse cx="597" cy="499" rx="18" ry="10" transform="rotate(228 597 499)" fill="#f7b8c8" opacity=".7"/>
         <g transform="translate(500 560) scale(.98) rotate(-6)" filter="url(#drop)"><ellipse cx="0" cy="0" rx="230" ry="140" fill="none" stroke="url(#m-silver)" stroke-width="30"/><circle cx="230" cy="0" r="11" fill="url(#crystal)"/><circle cx="226.15" cy="-3.8499999999999996" r="3.08" fill="#fff" opacity=".75"/><circle cx="224.9739481687753" cy="29.107636714486304" r="11" fill="url(#crystal)"/><circle cx="221.1239481687753" cy="25.257636714486303" r="3.08" fill="#fff" opacity=".75"/><circle cx="210.1154552577982" cy="56.943130030612025" r="11" fill="url(#crystal)"/><circle cx="206.2654552577982" cy="53.09313003061202" r="3.08" fill="#fff" opacity=".75"/><circle cx="186.07390870623792" cy="82.28993532094624" r="11" fill="url(#crystal)"/><circle cx="182.22390870623792" cy="78.43993532094625" r="3.08" fill="#fff" opacity=".75"/><circle cx="153.9000394625374" cy="104.04027556683519" r="11" fill="url(#crystal)"/><circle cx="150.0500394625374" cy="100.1902755668352" r="3.08" fill="#fff" opacity=".75"/><circle cx="115.00000000000003" cy="121.2435565298214" r="11" fill="url(#crystal)"/><circle cx="111.15000000000003" cy="117.39355652982141" r="3.08" fill="#fff" opacity=".75"/><circle cx="71.07390870623792" cy="133.14791228132148" r="11" fill="url(#crystal)"/><circle cx="67.22390870623792" cy="129.2979122813215" r="3.08" fill="#fff" opacity=".75"/><circle cx="24.041546551560295" cy="139.23306535155825" r="11" fill="url(#crystal)"/><circle cx="20.191546551560293" cy="135.38306535155826" r="3.08" fill="#fff" opacity=".75"/><circle cx="-24.041546551560266" cy="139.23306535155828" r="11" fill="url(#crystal)"/><circle cx="-27.891546551560268" cy="135.3830653515583" r="3.08" fill="#fff" opacity=".75"/><circle cx="-71.07390870623789" cy="133.1479122813215" r="11" fill="url(#crystal)"/><circle cx="-74.92390870623788" cy="129.29791228132152" r="3.08" fill="#fff" opacity=".75"/><circle cx="-114.99999999999994" cy="121.24355652982142" r="11" fill="url(#crystal)"/><circle cx="-118.84999999999994" cy="117.39355652982142" r="3.08" fill="#fff" opacity=".75"/><circle cx="-153.9000394625373" cy="104.04027556683522" r="11" fill="url(#crystal)"/><circle cx="-157.7500394625373" cy="100.19027556683523" r="3.08" fill="#fff" opacity=".75"/><circle cx="-186.0739087062379" cy="82.28993532094626" r="11" fill="url(#crystal)"/><circle cx="-189.92390870623788" cy="78.43993532094626" r="3.08" fill="#fff" opacity=".75"/><circle cx="-210.11545525779823" cy="56.943130030612004" r="11" fill="url(#crystal)"/><circle cx="-213.96545525779823" cy="53.093130030612" r="3.08" fill="#fff" opacity=".75"/><circle cx="-224.9739481687753" cy="29.107636714486304" r="11" fill="url(#crystal)"/><circle cx="-228.8239481687753" cy="25.257636714486303" r="3.08" fill="#fff" opacity=".75"/><circle cx="-230" cy="1.7145055188062946e-14" r="11" fill="url(#crystal)"/><circle cx="-233.85" cy="-3.8499999999999823" r="3.08" fill="#fff" opacity=".75"/><circle cx="-224.9739481687753" cy="-29.10763671448627" r="11" fill="url(#crystal)"/><circle cx="-228.8239481687753" cy="-32.95763671448627" r="3.08" fill="#fff" opacity=".75"/><circle cx="-210.11545525779826" cy="-56.943130030611975" r="11" fill="url(#crystal)"/><circle cx="-213.96545525779825" cy="-60.79313003061198" r="3.08" fill="#fff" opacity=".75"/><circle cx="-186.07390870623792" cy="-82.28993532094623" r="11" fill="url(#crystal)"/><circle cx="-189.9239087062379" cy="-86.13993532094622" r="3.08" fill="#fff" opacity=".75"/><circle cx="-153.90003946253745" cy="-104.04027556683516" r="11" fill="url(#crystal)"/><circle cx="-157.75003946253744" cy="-107.89027556683516" r="3.08" fill="#fff" opacity=".75"/><circle cx="-115.0000000000001" cy="-121.24355652982139" r="11" fill="url(#crystal)"/><circle cx="-118.8500000000001" cy="-125.09355652982138" r="3.08" fill="#fff" opacity=".75"/><circle cx="-71.07390870623794" cy="-133.14791228132148" r="11" fill="url(#crystal)"/><circle cx="-74.92390870623794" cy="-136.99791228132148" r="3.08" fill="#fff" opacity=".75"/><circle cx="-24.041546551560472" cy="-139.23306535155825" r="11" fill="url(#crystal)"/><circle cx="-27.891546551560474" cy="-143.08306535155825" r="3.08" fill="#fff" opacity=".75"/><circle cx="24.04154655156039" cy="-139.23306535155825" r="11" fill="url(#crystal)"/><circle cx="20.191546551560393" cy="-143.08306535155825" r="3.08" fill="#fff" opacity=".75"/><circle cx="71.07390870623786" cy="-133.1479122813215" r="11" fill="url(#crystal)"/><circle cx="67.22390870623786" cy="-136.9979122813215" r="3.08" fill="#fff" opacity=".75"/><circle cx="115.00000000000003" cy="-121.2435565298214" r="11" fill="url(#crystal)"/><circle cx="111.15000000000003" cy="-125.0935565298214" r="3.08" fill="#fff" opacity=".75"/><circle cx="153.90003946253745" cy="-104.04027556683516" r="11" fill="url(#crystal)"/><circle cx="150.05003946253746" cy="-107.89027556683516" r="3.08" fill="#fff" opacity=".75"/><circle cx="186.0739087062379" cy="-82.28993532094627" r="11" fill="url(#crystal)"/><circle cx="182.2239087062379" cy="-86.13993532094626" r="3.08" fill="#fff" opacity=".75"/><circle cx="210.11545525779823" cy="-56.943130030612025" r="11" fill="url(#crystal)"/><circle cx="206.26545525779824" cy="-60.793130030612026" r="3.08" fill="#fff" opacity=".75"/><circle cx="224.97394816877528" cy="-29.107636714486382" r="11" fill="url(#crystal)"/><circle cx="221.12394816877529" cy="-32.957636714486384" r="3.08" fill="#fff" opacity=".75"/></g></svg>
