<svg xmlns="http://www.w3.org/2000/svg" width="1000" height="1000" viewBox="0 0 1000 1000"><defs><linearGradient id="m-gold" x1="0" y1="0" x2="1" y2="1"><stop offset="0" stop-color="#fbe7a6"/><stop offset=".5" stop-color="#e2b04e"/><stop offset="1" stop-color="#9c6a1c"/></linearGradient><linearGradient id="m-rose" x1="0" y1="0" x2="1" y2="1"><stop offset="0" stop-color="#fbd9cc"/><stop offset=".5" stop-color="#dca08a"/><stop offset="1" stop-color="#9e5f4c"/></linearGradient><linearGradient id="m-silver" x1="0" y1="0" x2="1" y2="1"><stop offset="0" stop-color="#ffffff"/><stop offset=".5" stop-color="#c9ced6"/><stop offset="1" stop-color="#7d8591"/></linearGradient><radialGradient id="pearl" cx="0.35" cy="0.3" r="0.8"><stop offset="0" stop-color="#ffffff"/><stop offset="1" stop-color="#e6ddd0"/></radialGradient><radialGradient id="ruby" cx="0.35" cy="0.35" r="0.75"><stop offset="0" stop-color="#ff8aa0"/><stop offset="1" stop-color="#9b0f2a"/></radialGradient><radialGradient id="emerald" cx="0.35" cy="0.35" r="0.75"><stop offset="0" stop-color="#8ff0c8"/><stop offset="1" stop-color="#0d5a3f"/></radialGradient><radialGradient id="sapph" cx="0.35" cy="0.35" r="0.75"><stop offset="0" stop-color="#b6c8ff"/><stop offset="1" stop-color="#3a3fa0"/></radialGradient><radialGradient id="crystal" cx="0.35" cy="0.35" r="0.75"><stop offset="0" stop-color="#ffffff"/><stop offset="1" stop-color="#b9d4f0"/></radialGradient><filter id="soft" x="-20%" y="-20%" width="140%" height="140%"><feGaussianBlur stdDeviation="18"/></filter><filter id="drop" x="-20%" y="-20%" width="140%" height="160%"><feDropShadow dx="0" dy="14" stdDeviation="14" flood-color="#6b3b4a" flood-opacity=".22"/></filter><linearGradient id="bg" x1="0" y1="0" x2="0.4" y2="1"><stop offset="0" stop-color="#fff4ec"/><stop offset="1" stop-color="#f8d9c4"/></linearGradient><linearGradient id="jarShade" x1="0" y1="0" x2="0" y2="1"><stop offset="0" stop-color="#ffffff00"/><stop offset="1" stop-color="#e8b9c6"/></linearGradient></defs><rect width="1000" height="1000" fill="url(#bg)"/>
         <path d="M180 1000V430C180 250 330 130 500 130C670 130 820 250 820 430V1000Z" fill="#ffffff" opacity=".6"/>
         <rect x="0" y="780" width="1000" height="220" fill="#f8d9c4" opacity=".7"/>
         <ellipse cx="500" cy="800" rx="330" ry="40" fill="#ffffff" opacity=".9"/>
         <ellipse cx="541" cy="219" rx="28" ry="15" transform="rotate(20 541 219)" fill="#f7b8c8" opacity=".7"/><ellipse cx="242" cy="609" rx="15" ry="8" transform="rotate(211 242 609)" fill="#ffffff" opacity=".7"/><path transform="translate(926.0416666666666 227.40397805212618) scale(1.3365102023319617)" d="M0-18C2-6 6-2 18 0C6 2 2 6 0 18C-2 6-6 2-18 0C-6-2-2-6 0-18Z" fill="#ffffff"/><ellipse cx="915" cy="128" rx="20" ry="11" transform="rotate(131 915 128)" fill="#f7b8c8" opacity=".7"/><ellipse cx="270" cy="406" rx="13" ry="7" transform="rotate(158 270 406)" fill="#ffffff" opacity=".7"/><path transform="translate(349.24125514403295 352.9646776406036) scale(0.6137581447187929)" d="M0-18C2-6 6-2 18 0C6 2 2 6 0 18C-2 6-6 2-18 0C-6-2-2-6 0-18Z" fill="#ffffff"/><ellipse cx="29" cy="478" rx="16" ry="9" transform="rotate(29 29 478)" fill="#f7b8c8" opacity=".7"/><ellipse cx="594" cy="100" rx="13" ry="7" transform="rotate(91 594 100)" fill="#ffffff" opacity=".7"/><path transform="translate(290.9593621399177 297.04389574759944) scale(0.5835986796982168)" d="M0-18C2-6 6-2 18 0C6 2 2 6 0 18C-2 6-6 2-18 0C-6-2-2-6 0-18Z" fill="#ffffff"/><ellipse cx="551" cy="336" rx="33" ry="18" transform="rotate(313 551 336)" fill="#f7b8c8" opacity=".7"/>
         <g transform="translate(500 560) scale(.98) rotate(-6)" filter="url(#drop)"><path d="M-230-170C-200 60 200 60 230-170" fill="none" stroke="url(#m-gold)" stroke-width="3"/><circle cx="-225" cy="-165" r="14" fill="url(#pearl)"/><circle cx="-229.9" cy="-170.6" r="3.5" fill="#fff" opacity=".9"/><circle cx="-202.5" cy="-132.70000000000002" r="14" fill="url(#pearl)"/><circle cx="-207.4" cy="-138.3" r="3.5" fill="#fff" opacity=".9"/><circle cx="-180" cy="-103.80000000000001" r="14" fill="url(#pearl)"/><circle cx="-184.9" cy="-109.4" r="3.5" fill="#fff" opacity=".9"/><circle cx="-157.5" cy="-78.3" r="14" fill="url(#pearl)"/><circle cx="-162.4" cy="-83.89999999999999" r="3.5" fill="#fff" opacity=".9"/><circle cx="-135" cy="-56.2" r="14" fill="url(#pearl)"/><circle cx="-139.9" cy="-61.800000000000004" r="3.5" fill="#fff" opacity=".9"/><circle cx="-112.5" cy="-37.5" r="14" fill="url(#pearl)"/><circle cx="-117.4" cy="-43.1" r="3.5" fill="#fff" opacity=".9"/><circle cx="-90" cy="-22.200000000000017" r="14" fill="url(#pearl)"/><circle cx="-94.9" cy="-27.80000000000002" r="3.5" fill="#fff" opacity=".9"/><circle cx="-67.5" cy="-10.300000000000011" r="14" fill="url(#pearl)"/><circle cx="-72.4" cy="-15.900000000000013" r="3.5" fill="#fff" opacity=".9"/><circle cx="-45" cy="-1.8000000000000114" r="14" fill="url(#pearl)"/><circle cx="-49.9" cy="-7.400000000000012" r="3.5" fill="#fff" opacity=".9"/><circle cx="-22.5" cy="3.3000000000000114" r="14" fill="url(#pearl)"/><circle cx="-27.4" cy="-2.299999999999989" r="3.5" fill="#fff" opacity=".9"/><circle cx="0" cy="5" r="14" fill="url(#pearl)"/><circle cx="-4.8999999999999995" cy="-0.6000000000000005" r="3.5" fill="#fff" opacity=".9"/><circle cx="22.50000000000003" cy="3.3000000000000114" r="14" fill="url(#pearl)"/><circle cx="17.60000000000003" cy="-2.299999999999989" r="3.5" fill="#fff" opacity=".9"/><circle cx="45" cy="-1.8000000000000114" r="14" fill="url(#pearl)"/><circle cx="40.1" cy="-7.400000000000012" r="3.5" fill="#fff" opacity=".9"/><circle cx="67.5" cy="-10.300000000000011" r="14" fill="url(#pearl)"/><circle cx="62.6" cy="-15.900000000000013" r="3.5" fill="#fff" opacity=".9"/><circle cx="90" cy="-22.19999999999999" r="14" fill="url(#pearl)"/><circle cx="85.1" cy="-27.79999999999999" r="3.5" fill="#fff" opacity=".9"/><circle cx="112.5" cy="-37.5" r="14" fill="url(#pearl)"/><circle cx="107.6" cy="-43.1" r="3.5" fill="#fff" opacity=".9"/><circle cx="135" cy="-56.20000000000002" r="14" fill="url(#pearl)"/><circle cx="130.1" cy="-61.80000000000002" r="3.5" fill="#fff" opacity=".9"/><circle cx="157.5" cy="-78.3" r="14" fill="url(#pearl)"/><circle cx="152.6" cy="-83.89999999999999" r="3.5" fill="#fff" opacity=".9"/><circle cx="180" cy="-103.80000000000001" r="14" fill="url(#pearl)"/><circle cx="175.1" cy="-109.4" r="3.5" fill="#fff" opacity=".9"/><circle cx="202.5" cy="-132.7" r="14" fill="url(#pearl)"/><circle cx="197.6" cy="-138.29999999999998" r="3.5" fill="#fff" opacity=".9"/><circle cx="225" cy="-165" r="14" fill="url(#pearl)"/><circle cx="220.1" cy="-170.6" r="3.5" fill="#fff" opacity=".9"/><g transform="translate(-300 120) scale(.6)"><path d="M0-170C-26-170-26-135 0-135" fill="none" stroke="url(#m-gold)" stroke-width="7"/><circle cx="0" cy="-110" r="20" fill="url(#m-gold)"/><path d="M0-90V10" stroke="url(#m-gold)" stroke-width="5"/><circle cx="0" cy="70" r="62" fill="url(#pearl)"/><circle cx="-21.7" cy="45.2" r="15.5" fill="#fff" opacity=".9"/></g><g transform="translate(300 120) scale(.6)"><path d="M0-170C-26-170-26-135 0-135" fill="none" stroke="url(#m-gold)" stroke-width="7"/><circle cx="0" cy="-110" r="20" fill="url(#m-gold)"/><path d="M0-90V10" stroke="url(#m-gold)" stroke-width="5"/><circle cx="0" cy="70" r="62" fill="url(#pearl)"/><circle cx="-21.7" cy="45.2" r="15.5" fill="#fff" opacity=".9"/></g></g></svg>
