<svg xmlns="http://www.w3.org/2000/svg" width="1000" height="1000" viewBox="0 0 1000 1000"><defs><linearGradient id="m-gold" x1="0" y1="0" x2="1" y2="1"><stop offset="0" stop-color="#fbe7a6"/><stop offset=".5" stop-color="#e2b04e"/><stop offset="1" stop-color="#9c6a1c"/></linearGradient><linearGradient id="m-rose" x1="0" y1="0" x2="1" y2="1"><stop offset="0" stop-color="#fbd9cc"/><stop offset=".5" stop-color="#dca08a"/><stop offset="1" stop-color="#9e5f4c"/></linearGradient><linearGradient id="m-silver" x1="0" y1="0" x2="1" y2="1"><stop offset="0" stop-color="#ffffff"/><stop offset=".5" stop-color="#c9ced6"/><stop offset="1" stop-color="#7d8591"/></linearGradient><radialGradient id="pearl" cx="0.35" cy="0.3" r="0.8"><stop offset="0" stop-color="#ffffff"/><stop offset="1" stop-color="#e6ddd0"/></radialGradient><radialGradient id="ruby" cx="0.35" cy="0.35" r="0.75"><stop offset="0" stop-color="#ff8aa0"/><stop offset="1" stop-color="#9b0f2a"/></radialGradient><radialGradient id="emerald" cx="0.35" cy="0.35" r="0.75"><stop offset="0" stop-color="#8ff0c8"/><stop offset="1" stop-color="#0d5a3f"/></radialGradient><radialGradient id="sapph" cx="0.35" cy="0.35" r="0.75"><stop offset="0" stop-color="#b6c8ff"/><stop offset="1" stop-color="#3a3fa0"/></radialGradient><radialGradient id="crystal" cx="0.35" cy="0.35" r="0.75"><stop offset="0" stop-color="#ffffff"/><stop offset="1" stop-color="#b9d4f0"/></radialGradient><filter id="soft" x="-20%" y="-20%" width="140%" height="140%"><feGaussianBlur stdDeviation="18"/></filter><filter id="drop" x="-20%" y="-20%" width="140%" height="160%"><feDropShadow dx="0" dy="14" stdDeviation="14" flood-color="#6b3b4a" flood-opacity=".22"/></filter><linearGradient id="bg" x1="0" y1="0" x2="0.4" y2="1"><stop offset="0" stop-color="#f1f6ff"/><stop offset="1" stop-color="#d3e2f7"/></linearGradient><linearGradient id="jarShade" x1="0" y1="0" x2="0" y2="1"><stop offset="0" stop-color="#ffffff00"/><stop offset="1" stop-color="#e8b9c6"/></linearGradient></defs><rect width="1000" height="1000" fill="url(#bg)"/>
         <path d="M180 1000V430C180 250 330 130 500 130C670 130 820 250 820 430V1000Z" fill="#ffffff" opacity=".6"/>
         <rect x="0" y="780" width="1000" height="220" fill="#d3e2f7" opacity=".7"/>
         <ellipse cx="500" cy="800" rx="330" ry="40" fill="#ffffff" opacity=".9"/>
         <ellipse cx="578" cy="32" rx="20" ry="11" transform="rotate(232 578 32)" fill="#f7b8c8" opacity=".7"/><ellipse cx="844" cy="361" rx="34" ry="18" transform="rotate(0 844 361)" fill="#ffffff" opacity=".7"/><path transform="translate(810.4123799725652 599.8070987654321) scale(1.5273221021947874)" d="M0-18C2-6 6-2 18 0C6 2 2 6 0 18C-2 6-6 2-18 0C-6-2-2-6 0-18Z" fill="#ffffff"/><ellipse cx="834" cy="41" rx="25" ry="13" transform="rotate(101 834 41)" fill="#f7b8c8" opacity=".7"/><ellipse cx="792" cy="594" rx="26" ry="14" transform="rotate(198 792 594)" fill="#ffffff" opacity=".7"/><path transform="translate(968.1798696844993 176.60236625514403) scale(1.3274095507544583)" d="M0-18C2-6 6-2 18 0C6 2 2 6 0 18C-2 6-6 2-18 0C-6-2-2-6 0-18Z" fill="#ffffff"/><ellipse cx="609" cy="568" rx="20" ry="11" transform="rotate(37 609 568)" fill="#f7b8c8" opacity=".7"/><ellipse cx="147" cy="335" rx="15" ry="8" transform="rotate(63 147 335)" fill="#ffffff" opacity=".7"/><path transform="translate(88.91032235939643 116.36059670781894) scale(0.8423118141289438)" d="M0-18C2-6 6-2 18 0C6 2 2 6 0 18C-2 6-6 2-18 0C-6-2-2-6 0-18Z" fill="#ffffff"/><ellipse cx="569" cy="681" rx="22" ry="12" transform="rotate(279 569 681)" fill="#f7b8c8" opacity=".7"/>
         <g transform="translate(500 560) scale(.98) rotate(-6)" filter="url(#drop)"><ellipse cx="0" cy="0" rx="240" ry="95" fill="none" stroke="url(#m-silver)" stroke-width="70"/><ellipse cx="0" cy="0" rx="240" ry="95" fill="none" stroke="#6a717c" stroke-width="3" stroke-dasharray="14 10" opacity=".7"/><circle cx="223.14635661318036" cy="34.971832505044404" r="16" fill="none" stroke="#5f6570" stroke-width="4"/><circle cx="169.7056274847714" cy="67.175144212722" r="16" fill="none" stroke="#5f6570" stroke-width="4"/><circle cx="88.34989264432274" cy="88.32876615938387" r="16" fill="none" stroke="#5f6570" stroke-width="4"/><circle cx="-7.5385821787507865" cy="94.9531232347445" r="16" fill="none" stroke="#5f6570" stroke-width="4"/><circle cx="-102.18702997561745" cy="85.95856998427185" r="16" fill="none" stroke="#5f6570" stroke-width="4"/><circle cx="-180.02665671131027" cy="62.82462720574692" r="16" fill="none" stroke="#5f6570" stroke-width="4"/><circle cx="-228.25356391083685" cy="29.356614465620012" r="16" fill="none" stroke="#5f6570" stroke-width="4"/></g></svg>
