<svg xmlns="http://www.w3.org/2000/svg" width="1000" height="1000" viewBox="0 0 1000 1000"><defs><linearGradient id="m-gold" x1="0" y1="0" x2="1" y2="1"><stop offset="0" stop-color="#fbe7a6"/><stop offset=".5" stop-color="#e2b04e"/><stop offset="1" stop-color="#9c6a1c"/></linearGradient><linearGradient id="m-rose" x1="0" y1="0" x2="1" y2="1"><stop offset="0" stop-color="#fbd9cc"/><stop offset=".5" stop-color="#dca08a"/><stop offset="1" stop-color="#9e5f4c"/></linearGradient><linearGradient id="m-silver" x1="0" y1="0" x2="1" y2="1"><stop offset="0" stop-color="#ffffff"/><stop offset=".5" stop-color="#c9ced6"/><stop offset="1" stop-color="#7d8591"/></linearGradient><radialGradient id="pearl" cx="0.35" cy="0.3" r="0.8"><stop offset="0" stop-color="#ffffff"/><stop offset="1" stop-color="#e6ddd0"/></radialGradient><radialGradient id="ruby" cx="0.35" cy="0.35" r="0.75"><stop offset="0" stop-color="#ff8aa0"/><stop offset="1" stop-color="#9b0f2a"/></radialGradient><radialGradient id="emerald" cx="0.35" cy="0.35" r="0.75"><stop offset="0" stop-color="#8ff0c8"/><stop offset="1" stop-color="#0d5a3f"/></radialGradient><radialGradient id="sapph" cx="0.35" cy="0.35" r="0.75"><stop offset="0" stop-color="#b6c8ff"/><stop offset="1" stop-color="#3a3fa0"/></radialGradient><radialGradient id="crystal" cx="0.35" cy="0.35" r="0.75"><stop offset="0" stop-color="#ffffff"/><stop offset="1" stop-color="#b9d4f0"/></radialGradient><filter id="soft" x="-20%" y="-20%" width="140%" height="140%"><feGaussianBlur stdDeviation="18"/></filter><filter id="drop" x="-20%" y="-20%" width="140%" height="160%"><feDropShadow dx="0" dy="14" stdDeviation="14" flood-color="#6b3b4a" flood-opacity=".22"/></filter><linearGradient id="bg" x1="0" y1="0" x2="0.4" y2="1"><stop offset="0" stop-color="#fff4ec"/><stop offset="1" stop-color="#f8d9c4"/></linearGradient><linearGradient id="jarShade" x1="0" y1="0" x2="0" y2="1"><stop offset="0" stop-color="#ffffff00"/><stop offset="1" stop-color="#e8b9c6"/></linearGradient></defs><rect width="1000" height="1000" fill="url(#bg)"/><circle cx="500" cy="470" r="340" fill="#ffffff" opacity=".55"/>
         <ellipse cx="500" cy="820" rx="300" ry="36" fill="#6b3b4a" opacity=".08" filter="url(#soft)"/>
         <ellipse cx="514" cy="885" rx="20" ry="11" transform="rotate(121 514 885)" fill="#f7b8c8" opacity=".7"/><ellipse cx="671" cy="479" rx="29" ry="16" transform="rotate(183 671 479)" fill="#ffffff" opacity=".7"/><path transform="translate(798.2938957475994 142.8455075445816) scale(1.3991255144032921)" d="M0-18C2-6 6-2 18 0C6 2 2 6 0 18C-2 6-6 2-18 0C-6-2-2-6 0-18Z" fill="#ffffff"/><ellipse cx="959" cy="12" rx="27" ry="15" transform="rotate(218 959 12)" fill="#f7b8c8" opacity=".7"/><ellipse cx="510" cy="75" rx="23" ry="13" transform="rotate(262 510 75)" fill="#ffffff" opacity=".7"/><path transform="translate(329.5181755829904 59.872256515775035) scale(0.5914969135802469)" d="M0-18C2-6 6-2 18 0C6 2 2 6 0 18C-2 6-6 2-18 0C-6-2-2-6 0-18Z" fill="#ffffff"/><ellipse cx="700" cy="991" rx="13" ry="7" transform="rotate(302 700 991)" fill="#f7b8c8" opacity=".7"/><ellipse cx="869" cy="412" rx="33" ry="18" transform="rotate(48 869 412)" fill="#ffffff" opacity=".7"/>
         <g transform="translate(500 480) scale(1.18)" filter="url(#drop)"><g transform="translate(-40 -200) rotate(-8)"><rect x="-90" y="-10" width="180" height="20" rx="10" fill="url(#m-gold)"/><circle cx="-68" cy="-2" r="15" fill="url(#pearl)"/><circle cx="-73.25" cy="-8" r="3.75" fill="#fff" opacity=".9"/><circle cx="-28" cy="-2" r="15" fill="url(#pearl)"/><circle cx="-33.25" cy="-8" r="3.75" fill="#fff" opacity=".9"/><circle cx="12" cy="-2" r="15" fill="url(#pearl)"/><circle cx="6.75" cy="-8" r="3.75" fill="#fff" opacity=".9"/><circle cx="52" cy="-2" r="15" fill="url(#pearl)"/><circle cx="46.75" cy="-8" r="3.75" fill="#fff" opacity=".9"/></g><g transform="translate(20 -120) rotate(-2)"><rect x="-120" y="-10" width="240" height="20" rx="10" fill="url(#m-gold)"/><circle cx="-98" cy="-2" r="15" fill="url(#pearl)"/><circle cx="-103.25" cy="-8" r="3.75" fill="#fff" opacity=".9"/><circle cx="-58" cy="-2" r="15" fill="url(#pearl)"/><circle cx="-63.25" cy="-8" r="3.75" fill="#fff" opacity=".9"/><circle cx="-18" cy="-2" r="15" fill="url(#pearl)"/><circle cx="-23.25" cy="-8" r="3.75" fill="#fff" opacity=".9"/><circle cx="22" cy="-2" r="15" fill="url(#pearl)"/><circle cx="16.75" cy="-8" r="3.75" fill="#fff" opacity=".9"/><circle cx="62" cy="-2" r="15" fill="url(#pearl)"/><circle cx="56.75" cy="-8" r="3.75" fill="#fff" opacity=".9"/><circle cx="102" cy="-2" r="15" fill="url(#pearl)"/><circle cx="96.75" cy="-8" r="3.75" fill="#fff" opacity=".9"/></g><g transform="translate(-40 -40) rotate(4)"><rect x="-150" y="-10" width="300" height="20" rx="10" fill="url(#m-gold)"/><circle cx="-128" cy="-2" r="15" fill="url(#pearl)"/><circle cx="-133.25" cy="-8" r="3.75" fill="#fff" opacity=".9"/><circle cx="-88" cy="-2" r="15" fill="url(#pearl)"/><circle cx="-93.25" cy="-8" r="3.75" fill="#fff" opacity=".9"/><circle cx="-48" cy="-2" r="15" fill="url(#pearl)"/><circle cx="-53.25" cy="-8" r="3.75" fill="#fff" opacity=".9"/><circle cx="-8" cy="-2" r="15" fill="url(#pearl)"/><circle cx="-13.25" cy="-8" r="3.75" fill="#fff" opacity=".9"/><circle cx="32" cy="-2" r="15" fill="url(#pearl)"/><circle cx="26.75" cy="-8" r="3.75" fill="#fff" opacity=".9"/><circle cx="72" cy="-2" r="15" fill="url(#pearl)"/><circle cx="66.75" cy="-8" r="3.75" fill="#fff" opacity=".9"/><circle cx="112" cy="-2" r="15" fill="url(#pearl)"/><circle cx="106.75" cy="-8" r="3.75" fill="#fff" opacity=".9"/></g><g transform="translate(20 40) rotate(-8)"><rect x="-90" y="-10" width="180" height="20" rx="10" fill="url(#m-gold)"/><circle cx="-68" cy="-2" r="15" fill="url(#pearl)"/><circle cx="-73.25" cy="-8" r="3.75" fill="#fff" opacity=".9"/><circle cx="-28" cy="-2" r="15" fill="url(#pearl)"/><circle cx="-33.25" cy="-8" r="3.75" fill="#fff" opacity=".9"/><circle cx="12" cy="-2" r="15" fill="url(#pearl)"/><circle cx="6.75" cy="-8" r="3.75" fill="#fff" opacity=".9"/><circle cx="52" cy="-2" r="15" fill="url(#pearl)"/><circle cx="46.75" cy="-8" r="3.75" fill="#fff" opacity=".9"/></g><g transform="translate(-40 120) rotate(-2)"><rect x="-120" y="-10" width="240" height="20" rx="10" fill="url(#m-gold)"/><circle cx="-98" cy="-2" r="15" fill="url(#pearl)"/><circle cx="-103.25" cy="-8" r="3.75" fill="#fff" opacity=".9"/><circle cx="-58" cy="-2" r="15" fill="url(#pearl)"/><circle cx="-63.25" cy="-8" r="3.75" fill="#fff" opacity=".9"/><circle cx="-18" cy="-2" r="15" fill="url(#pearl)"/><circle cx="-23.25" cy="-8" r="3.75" fill="#fff" opacity=".9"/><circle cx="22" cy="-2" r="15" fill="url(#pearl)"/><circle cx="16.75" cy="-8" r="3.75" fill="#fff" opacity=".9"/><circle cx="62" cy="-2" r="15" fill="url(#pearl)"/><circle cx="56.75" cy="-8" r="3.75" fill="#fff" opacity=".9"/><circle cx="102" cy="-2" r="15" fill="url(#pearl)"/><circle cx="96.75" cy="-8" r="3.75" fill="#fff" opacity=".9"/></g><g transform="translate(20 200) rotate(4)"><rect x="-150" y="-10" width="300" height="20" rx="10" fill="url(#m-gold)"/><circle cx="-128" cy="-2" r="15" fill="url(#pearl)"/><circle cx="-133.25" cy="-8" r="3.75" fill="#fff" opacity=".9"/><circle cx="-88" cy="-2" r="15" fill="url(#pearl)"/><circle cx="-93.25" cy="-8" r="3.75" fill="#fff" opacity=".9"/><circle cx="-48" cy="-2" r="15" fill="url(#pearl)"/><circle cx="-53.25" cy="-8" r="3.75" fill="#fff" opacity=".9"/><circle cx="-8" cy="-2" r="15" fill="url(#pearl)"/><circle cx="-13.25" cy="-8" r="3.75" fill="#fff" opacity=".9"/><circle cx="32" cy="-2" r="15" fill="url(#pearl)"/><circle cx="26.75" cy="-8" r="3.75" fill="#fff" opacity=".9"/><circle cx="72" cy="-2" r="15" fill="url(#pearl)"/><circle cx="66.75" cy="-8" r="3.75" fill="#fff" opacity=".9"/><circle cx="112" cy="-2" r="15" fill="url(#pearl)"/><circle cx="106.75" cy="-8" r="3.75" fill="#fff" opacity=".9"/></g></g></svg>
