<svg xmlns="http://www.w3.org/2000/svg" width="1000" height="1000" viewBox="0 0 1000 1000"><defs><linearGradient id="m-gold" x1="0" y1="0" x2="1" y2="1"><stop offset="0" stop-color="#fbe7a6"/><stop offset=".5" stop-color="#e2b04e"/><stop offset="1" stop-color="#9c6a1c"/></linearGradient><linearGradient id="m-rose" x1="0" y1="0" x2="1" y2="1"><stop offset="0" stop-color="#fbd9cc"/><stop offset=".5" stop-color="#dca08a"/><stop offset="1" stop-color="#9e5f4c"/></linearGradient><linearGradient id="m-silver" x1="0" y1="0" x2="1" y2="1"><stop offset="0" stop-color="#ffffff"/><stop offset=".5" stop-color="#c9ced6"/><stop offset="1" stop-color="#7d8591"/></linearGradient><radialGradient id="pearl" cx="0.35" cy="0.3" r="0.8"><stop offset="0" stop-color="#ffffff"/><stop offset="1" stop-color="#e6ddd0"/></radialGradient><radialGradient id="ruby" cx="0.35" cy="0.35" r="0.75"><stop offset="0" stop-color="#ff8aa0"/><stop offset="1" stop-color="#9b0f2a"/></radialGradient><radialGradient id="emerald" cx="0.35" cy="0.35" r="0.75"><stop offset="0" stop-color="#8ff0c8"/><stop offset="1" stop-color="#0d5a3f"/></radialGradient><radialGradient id="sapph" cx="0.35" cy="0.35" r="0.75"><stop offset="0" stop-color="#b6c8ff"/><stop offset="1" stop-color="#3a3fa0"/></radialGradient><radialGradient id="crystal" cx="0.35" cy="0.35" r="0.75"><stop offset="0" stop-color="#ffffff"/><stop offset="1" stop-color="#b9d4f0"/></radialGradient><filter id="soft" x="-20%" y="-20%" width="140%" height="140%"><feGaussianBlur stdDeviation="18"/></filter><filter id="drop" x="-20%" y="-20%" width="140%" height="160%"><feDropShadow dx="0" dy="14" stdDeviation="14" flood-color="#6b3b4a" flood-opacity=".22"/></filter><linearGradient id="bg" x1="0" y1="0" x2="0.4" y2="1"><stop offset="0" stop-color="#fff4ec"/><stop offset="1" stop-color="#f8d9c4"/></linearGradient><linearGradient id="jarShade" x1="0" y1="0" x2="0" y2="1"><stop offset="0" stop-color="#ffffff00"/><stop offset="1" stop-color="#e8b9c6"/></linearGradient></defs><rect width="1000" height="1000" fill="url(#bg)"/><circle cx="500" cy="470" r="340" fill="#ffffff" opacity=".55"/>
         <ellipse cx="500" cy="820" rx="300" ry="36" fill="#6b3b4a" opacity=".08" filter="url(#soft)"/>
         <ellipse cx="72" cy="588" rx="23" ry="12" transform="rotate(125 72 588)" fill="#f7b8c8" opacity=".7"/><ellipse cx="918" cy="365" rx="15" ry="8" transform="rotate(208 918 365)" fill="#ffffff" opacity=".7"/><path transform="translate(43.72427983539095 890.8479080932785) scale(1.586485768175583)" d="M0-18C2-6 6-2 18 0C6 2 2 6 0 18C-2 6-6 2-18 0C-6-2-2-6 0-18Z" fill="#ffffff"/><ellipse cx="992" cy="561" rx="23" ry="12" transform="rotate(313 992 561)" fill="#f7b8c8" opacity=".7"/><ellipse cx="715" cy="66" rx="34" ry="18" transform="rotate(312 715 66)" fill="#ffffff" opacity=".7"/><path transform="translate(124.33127572016461 616.5166323731138) scale(0.9757707475994514)" d="M0-18C2-6 6-2 18 0C6 2 2 6 0 18C-2 6-6 2-18 0C-6-2-2-6 0-18Z" fill="#ffffff"/><ellipse cx="320" cy="830" rx="19" ry="10" transform="rotate(168 320 830)" fill="#f7b8c8" opacity=".7"/><ellipse cx="474" cy="285" rx="22" ry="12" transform="rotate(282 474 285)" fill="#ffffff" opacity=".7"/>
         <g transform="translate(500 480) scale(1.18)" filter="url(#drop)"><g transform="translate(-210 0)" filter="url(#drop)"><rect x="-40" y="40" width="80" height="170" rx="10" fill="url(#m-gold)"/><rect x="-32" y="-40" width="64" height="90" fill="url(#m-silver)"/><path d="M-26-40V-120C-26-150 26-170 26-140V-40Z" fill="#c8203d"/></g><g transform="translate(-70 30)" filter="url(#drop)"><rect x="-40" y="40" width="80" height="170" rx="10" fill="url(#m-gold)"/><rect x="-32" y="-40" width="64" height="90" fill="url(#m-silver)"/><path d="M-26-40V-120C-26-150 26-170 26-140V-40Z" fill="#c98f7a"/></g><g transform="translate(70 0)" filter="url(#drop)"><rect x="-40" y="40" width="80" height="170" rx="10" fill="url(#m-gold)"/><rect x="-32" y="-40" width="64" height="90" fill="url(#m-silver)"/><path d="M-26-40V-120C-26-150 26-170 26-140V-40Z" fill="#f28ab2"/></g><g transform="translate(210 30)" filter="url(#drop)"><rect x="-40" y="40" width="80" height="170" rx="10" fill="url(#m-gold)"/><rect x="-32" y="-40" width="64" height="90" fill="url(#m-silver)"/><path d="M-26-40V-120C-26-150 26-170 26-140V-40Z" fill="#7a1f35"/></g></g></svg>
